<?xml version="1.0" encoding="UTF-8"?>
<!DOCTYPE svg PUBLIC "-//W3C//DTD SVG 1.1//EN" "http://www.w3.org/Graphics/SVG/1.1/DTD/svg11.dtd">
<svg xmlns="http://www.w3.org/2000/svg" version="1.1" width="176px" height="176px" style="shape-rendering:geometricPrecision; text-rendering:geometricPrecision; image-rendering:optimizeQuality; fill-rule:evenodd; clip-rule:evenodd" xmlns:xlink="http://www.w3.org/1999/xlink">
<g><path style="opacity:0.704" fill="#b9dee8" d="M 88.5,29.5 C 83.5,29.5 78.5,29.5 73.5,29.5C 73.6107,28.8826 73.944,28.3826 74.5,28C 76.8333,27.8333 79.1667,27.6667 81.5,27.5C 84.2695,27.5286 86.6028,28.1952 88.5,29.5 Z"/></g>
<g><path style="opacity:0.999" fill="#73bacf" d="M 73.5,29.5 C 78.5,29.5 83.5,29.5 88.5,29.5C 88.5,34.1667 88.5,38.8333 88.5,43.5C 94.5,43.5 100.5,43.5 106.5,43.5C 105.88,49.9262 106.547,55.9262 108.5,61.5C 111.833,61.5 115.167,61.5 118.5,61.5C 118.334,67.1764 118.501,72.8431 119,78.5C 120.011,79.3366 121.178,79.67 122.5,79.5C 122.5,84.1667 122.5,88.8333 122.5,93.5C 123.183,95.1765 124.517,95.8432 126.5,95.5C 126.5,92.1667 126.5,88.8333 126.5,85.5C 131.833,85.5 137.167,85.5 142.5,85.5C 142.5,86.8333 142.5,88.1667 142.5,89.5C 142.5,93.5 142.5,97.5 142.5,101.5C 141.167,101.5 140.5,102.167 140.5,103.5C 140.5,104.833 140.5,106.167 140.5,107.5C 138.824,108.183 138.157,109.517 138.5,111.5C 138.5,112.167 138.5,112.833 138.5,113.5C 137.167,113.5 136.5,114.167 136.5,115.5C 136.5,116.167 136.5,116.833 136.5,117.5C 135.167,117.5 134.5,118.167 134.5,119.5C 134.5,120.167 134.5,120.833 134.5,121.5C 133.167,121.5 132.5,122.167 132.5,123.5C 131.167,125.5 129.833,127.5 128.5,129.5C 127.167,129.5 126.5,130.167 126.5,131.5C 125.167,131.5 124.5,132.167 124.5,133.5C 119.413,138.379 113.413,141.712 106.5,143.5C 104.517,143.157 103.183,143.824 102.5,145.5C 100.5,145.5 98.5,145.5 96.5,145.5C 87.8333,145.5 79.1667,145.5 70.5,145.5C 69.1667,145.5 67.8333,145.5 66.5,145.5C 66.5,144.167 65.8333,143.5 64.5,143.5C 63.8333,143.5 63.1667,143.5 62.5,143.5C 62.1788,141.952 61.1788,141.285 59.5,141.5C 57.6776,141.169 56.0109,140.502 54.5,139.5C 54.5,138.167 53.8333,137.5 52.5,137.5C 52.5,136.167 51.8333,135.5 50.5,135.5C 40.7704,129.055 34.7704,120.055 32.5,108.5C 32.7148,106.821 32.0481,105.821 30.5,105.5C 30.5,104.5 30.5,103.5 30.5,102.5C 31.0545,98.9878 30.3878,95.9878 28.5,93.5C 27.2329,90.728 27.2329,88.0613 28.5,85.5C 30.4302,81.6273 31.0969,77.294 30.5,72.5C 30.5,71.5 30.5,70.5 30.5,69.5C 32.1765,68.8166 32.8432,67.4832 32.5,65.5C 33.2407,61.9476 34.574,58.6142 36.5,55.5C 37.8333,55.5 38.5,54.8333 38.5,53.5C 38.5,52.8333 38.5,52.1667 38.5,51.5C 39.8333,51.5 40.5,50.8333 40.5,49.5C 45.4318,41.8916 52.0985,36.5583 60.5,33.5C 62.4832,33.8432 63.8166,33.1765 64.5,31.5C 67.1625,29.7319 70.1625,29.0653 73.5,29.5 Z M 76.5,39.5 C 77.8333,39.5 79.1667,39.5 80.5,39.5C 80.5,41.5 80.5,43.5 80.5,45.5C 76.6707,44.931 73.3373,45.5977 70.5,47.5C 70.5,53.5 70.5,59.5 70.5,65.5C 74.3293,64.931 77.6627,65.5977 80.5,67.5C 76.6707,66.931 73.3373,67.5977 70.5,69.5C 70.5,75.5 70.5,81.5 70.5,87.5C 73.5,87.5 76.5,87.5 79.5,87.5C 80.2341,88.7079 80.5674,90.0413 80.5,91.5C 84.1817,91.3347 87.8484,91.5014 91.5,92C 92.1913,95.2148 92.5246,98.3815 92.5,101.5C 92.7869,103.121 93.7869,104.121 95.5,104.5C 97.7466,103.626 100.08,103.292 102.5,103.5C 101.931,107.329 102.598,110.663 104.5,113.5C 110.5,113.5 116.5,113.5 122.5,113.5C 122.5,110.5 122.5,107.5 122.5,104.5C 125.728,103.586 129.061,103.253 132.5,103.5C 132.5,104.167 132.5,104.833 132.5,105.5C 131.167,105.5 130.5,106.167 130.5,107.5C 130.5,108.833 130.5,110.167 130.5,111.5C 129.167,111.5 128.5,112.167 128.5,113.5C 128.5,113.833 128.5,114.167 128.5,114.5C 127.094,114.973 126.427,115.973 126.5,117.5C 125.167,117.5 124.5,118.167 124.5,119.5C 124.5,119.833 124.5,120.167 124.5,120.5C 123.094,120.973 122.427,121.973 122.5,123.5C 121.167,123.5 120.5,124.167 120.5,125.5C 119.167,125.5 118.5,126.167 118.5,127.5C 115.044,130.951 111.044,133.618 106.5,135.5C 104.302,135.12 102.635,135.787 101.5,137.5C 100.5,137.5 99.5,137.5 98.5,137.5C 94.5,137.5 90.5,137.5 86.5,137.5C 84.5,137.5 82.5,137.5 80.5,137.5C 80.5,136.167 79.8333,135.5 78.5,135.5C 77.1667,135.5 75.8333,135.5 74.5,135.5C 74.5,134.167 73.8333,133.5 72.5,133.5C 70.5,132.167 68.5,130.833 66.5,129.5C 66.5,128.167 65.8333,127.5 64.5,127.5C 64.1667,127.5 63.8333,127.5 63.5,127.5C 63.2014,125.545 62.2014,124.211 60.5,123.5C 59.8333,121.5 58.5,120.167 56.5,119.5C 56.8432,117.517 56.1765,116.183 54.5,115.5C 53.8333,114.167 53.1667,112.833 52.5,111.5C 52.8432,109.517 52.1765,108.183 50.5,107.5C 50.5,106.833 50.5,106.167 50.5,105.5C 50.8799,103.302 50.2132,101.635 48.5,100.5C 48.5,98.8333 48.5,97.1667 48.5,95.5C 48.5,91.5 48.5,87.5 48.5,83.5C 48.5,80.1667 48.5,76.8333 48.5,73.5C 49.8333,73.5 50.5,72.8333 50.5,71.5C 50.5,70.1667 50.5,68.8333 50.5,67.5C 51.8333,67.5 52.5,66.8333 52.5,65.5C 52.5,64.8333 52.5,64.1667 52.5,63.5C 53.8333,63.5 54.5,62.8333 54.5,61.5C 54.5,60.8333 54.5,60.1667 54.5,59.5C 55.8333,59.5 56.5,58.8333 56.5,57.5C 57.1667,56.1667 57.8333,54.8333 58.5,53.5C 59.8333,53.5 60.5,52.8333 60.5,51.5C 61.8333,51.5 62.5,50.8333 62.5,49.5C 63.8333,49.5 64.5,48.8333 64.5,47.5C 67.9447,44.0651 71.9447,41.3984 76.5,39.5 Z M 96.5,51.5 C 99.1667,52.1667 99.1667,52.8333 96.5,53.5C 96.5,52.8333 96.5,52.1667 96.5,51.5 Z M 78.5,55.5 C 81.8333,55.5 85.1667,55.5 88.5,55.5C 87.3064,56.7773 85.6397,57.4439 83.5,57.5C 81.3603,57.4439 79.6936,56.7773 78.5,55.5 Z M 42.5,61.5 C 43.1667,61.5 43.8333,61.5 44.5,61.5C 44.5,62.1667 44.5,62.8333 44.5,63.5C 43.8333,63.5 43.1667,63.5 42.5,63.5C 42.5,62.8333 42.5,62.1667 42.5,61.5 Z M 90.5,61.5 C 93.1667,61.5 95.8333,61.5 98.5,61.5C 97.88,67.9262 98.5467,73.9262 100.5,79.5C 101.587,81.9843 102.253,84.6509 102.5,87.5C 102.461,89.9522 101.794,91.9522 100.5,93.5C 100.5,90.1667 100.5,86.8333 100.5,83.5C 97.1667,83.5 93.8333,83.5 90.5,83.5C 90.8432,81.5168 90.1765,80.1834 88.5,79.5C 84.6707,80.069 81.3373,79.4023 78.5,77.5C 81.8333,77.5 85.1667,77.5 88.5,77.5C 90.4461,72.6042 91.1128,67.2709 90.5,61.5 Z M 108.5,69.5 C 109.167,69.5 109.833,69.5 110.5,69.5C 109.833,72.1667 109.167,72.1667 108.5,69.5 Z M 38.5,73.5 C 40.1042,74.287 40.7709,75.6203 40.5,77.5C 40.1667,78.5 39.5,79.1667 38.5,79.5C 38.5,77.5 38.5,75.5 38.5,73.5 Z M 112.5,87.5 C 113.5,87.8333 114.167,88.5 114.5,89.5C 113.167,89.5 112.5,88.8333 112.5,87.5 Z M 36.5,88.5 C 37.6491,88.7911 38.3158,89.6244 38.5,91C 38.3158,92.3756 37.6491,93.2089 36.5,93.5C 36.5,91.8333 36.5,90.1667 36.5,88.5 Z M 114.5,99.5 C 114.975,102.082 114.308,104.082 112.5,105.5C 112.025,102.918 112.692,100.918 114.5,99.5 Z M 40.5,105.5 C 39.8333,105.5 39.1667,105.5 38.5,105.5C 38.5,105.167 38.5,104.833 38.5,104.5C 39.9245,102.969 40.5912,103.302 40.5,105.5 Z M 40.5,105.5 C 41.1667,105.5 41.8333,105.5 42.5,105.5C 42.5,106.167 42.5,106.833 42.5,107.5C 42.44,108.043 42.1067,108.376 41.5,108.5C 40.6143,107.675 40.281,106.675 40.5,105.5 Z M 48.5,119.5 C 48.5,120.167 48.5,120.833 48.5,121.5C 47.5084,121.672 46.8417,121.338 46.5,120.5C 47.1667,120.167 47.8333,119.833 48.5,119.5 Z"/></g>
<g><path style="opacity:0.509" fill="#b2dce5" d="M 64.5,31.5 C 63.8166,33.1765 62.4832,33.8432 60.5,33.5C 61.1834,31.8235 62.5168,31.1568 64.5,31.5 Z"/></g>
<g><path style="opacity:0.626" fill="#b2dce5" d="M 80.5,45.5 C 80.5,43.5 80.5,41.5 80.5,39.5C 79.1667,39.5 77.8333,39.5 76.5,39.5C 77.9179,37.6921 79.9179,37.0254 82.5,37.5C 83.0356,40.6981 82.369,43.3647 80.5,45.5 Z"/></g>
<g><path style="opacity:0.95" fill="#90c9db" d="M 128.5,35.5 C 128.5,36.1667 128.5,36.8333 128.5,37.5C 123.167,37.5 117.833,37.5 112.5,37.5C 112.5,42.8333 112.5,48.1667 112.5,53.5C 111.833,53.5 111.167,53.5 110.5,53.5C 110.5,47.5 110.5,41.5 110.5,35.5C 116.5,35.5 122.5,35.5 128.5,35.5 Z"/></g>
<g><path style="opacity:1" fill="#6fb8ce" d="M 128.5,37.5 C 128.5,42.8333 128.5,48.1667 128.5,53.5C 123.167,53.5 117.833,53.5 112.5,53.5C 112.5,48.1667 112.5,42.8333 112.5,37.5C 117.833,37.5 123.167,37.5 128.5,37.5 Z M 122.5,45.5 C 121.167,45.5 119.833,45.5 118.5,45.5C 119.665,42.9781 120.998,42.9781 122.5,45.5 Z"/></g>
<g><path style="opacity:0.21" fill="#d6ebf2" d="M 88.5,29.5 C 90.4228,33.0293 91.0894,37.0293 90.5,41.5C 96.9262,40.88 102.926,41.5467 108.5,43.5C 107.833,43.5 107.167,43.5 106.5,43.5C 100.5,43.5 94.5,43.5 88.5,43.5C 88.5,38.8333 88.5,34.1667 88.5,29.5 Z"/></g>
<g><path style="opacity:0.562" fill="#b2dce5" d="M 106.5,43.5 C 107.167,43.5 107.833,43.5 108.5,43.5C 108.5,49.5 108.5,55.5 108.5,61.5C 106.547,55.9262 105.88,49.9262 106.5,43.5 Z"/></g>
<g><path style="opacity:0.189" fill="#d8edf2" d="M 80.5,45.5 C 77.6627,47.4023 74.3293,48.069 70.5,47.5C 73.3373,45.5977 76.6707,44.931 80.5,45.5 Z"/></g>
<g><path style="opacity:0.206" fill="#d8edf2" d="M 118.5,45.5 C 119.833,45.5 121.167,45.5 122.5,45.5C 122.38,46.5862 121.713,47.2528 120.5,47.5C 119.287,47.2528 118.62,46.5862 118.5,45.5 Z"/></g>
<g><path style="opacity:0.211" fill="#d8edf2" d="M 64.5,47.5 C 64.5,48.8333 63.8333,49.5 62.5,49.5C 62.5,48.1667 63.1667,47.5 64.5,47.5 Z"/></g>
<g><path style="opacity:0.194" fill="#d8edf2" d="M 40.5,49.5 C 40.5,50.8333 39.8333,51.5 38.5,51.5C 38.5,50.1667 39.1667,49.5 40.5,49.5 Z"/></g>
<g><path style="opacity:0.212" fill="#d8edf2" d="M 62.5,49.5 C 62.5,50.8333 61.8333,51.5 60.5,51.5C 60.5,50.1667 61.1667,49.5 62.5,49.5 Z"/></g>
<g><path style="opacity:0.219" fill="#d8edf2" d="M 60.5,51.5 C 60.5,52.8333 59.8333,53.5 58.5,53.5C 58.5,52.1667 59.1667,51.5 60.5,51.5 Z"/></g>
<g><path style="opacity:0.205" fill="#d8edf2" d="M 38.5,53.5 C 38.5,54.8333 37.8333,55.5 36.5,55.5C 36.5,54.1667 37.1667,53.5 38.5,53.5 Z"/></g>
<g><path style="opacity:0.505" fill="#b2dce5" d="M 88.5,55.5 C 85.1667,55.5 81.8333,55.5 78.5,55.5C 79.6936,54.2227 81.3603,53.5561 83.5,53.5C 85.6397,53.5561 87.3064,54.2227 88.5,55.5 Z"/></g>
<g><path style="opacity:0.492" fill="#b3dbe6" d="M 96.5,53.5 C 99.1667,52.8333 99.1667,52.1667 96.5,51.5C 97.1834,49.8235 98.5168,49.1568 100.5,49.5C 100.5,51.5 100.5,53.5 100.5,55.5C 98.5168,55.8432 97.1834,55.1765 96.5,53.5 Z"/></g>
<g><path style="opacity:0.723" fill="#b7dee7" d="M 128.5,35.5 C 130.459,41.7496 131.126,48.4163 130.5,55.5C 123.416,56.1255 116.75,55.4589 110.5,53.5C 111.167,53.5 111.833,53.5 112.5,53.5C 117.833,53.5 123.167,53.5 128.5,53.5C 128.5,48.1667 128.5,42.8333 128.5,37.5C 128.5,36.8333 128.5,36.1667 128.5,35.5 Z"/></g>
<g><path style="opacity:0.188" fill="#d8edf2" d="M 44.5,61.5 C 43.8333,61.5 43.1667,61.5 42.5,61.5C 43.0656,59.9217 44.0656,58.5884 45.5,57.5C 45.8333,58.1667 46.1667,58.8333 46.5,59.5C 46.2528,60.7133 45.5862,61.38 44.5,61.5 Z"/></g>
<g><path style="opacity:0.222" fill="#d8edf2" d="M 56.5,57.5 C 56.5,58.8333 55.8333,59.5 54.5,59.5C 54.5,58.1667 55.1667,57.5 56.5,57.5 Z"/></g>
<g><path style="opacity:0.267" fill="#d8edf2" d="M 126.5,57.5 C 126.5,58.1667 126.5,58.8333 126.5,59.5C 126.5,64.8333 126.5,70.1667 126.5,75.5C 125.184,72.9134 124.517,69.9134 124.5,66.5C 124.517,63.0866 125.184,60.0866 126.5,57.5 Z"/></g>
<g><path style="opacity:0.936" fill="#8fc9da" d="M 126.5,57.5 C 132.926,56.88 138.926,57.5467 144.5,59.5C 138.5,59.5 132.5,59.5 126.5,59.5C 126.5,58.8333 126.5,58.1667 126.5,57.5 Z"/></g>
<g><path style="opacity:0.998" fill="#6eb8cd" d="M 126.5,59.5 C 132.5,59.5 138.5,59.5 144.5,59.5C 144.5,64.8333 144.5,70.1667 144.5,75.5C 138.5,75.5 132.5,75.5 126.5,75.5C 126.5,70.1667 126.5,64.8333 126.5,59.5 Z M 134.5,65.5 C 134.833,65.5 135.167,65.5 135.5,65.5C 136.463,66.3635 136.463,67.0302 135.5,67.5C 134.702,67.0431 134.369,66.3764 134.5,65.5 Z"/></g>
<g><path style="opacity:0.228" fill="#d8edf2" d="M 54.5,61.5 C 54.5,62.8333 53.8333,63.5 52.5,63.5C 52.5,62.1667 53.1667,61.5 54.5,61.5 Z"/></g>
<g><path style="opacity:0.222" fill="#d8edf2" d="M 90.5,61.5 C 91.1128,67.2709 90.4461,72.6042 88.5,77.5C 88.5,76.8333 88.5,76.1667 88.5,75.5C 87.8969,70.3814 88.5636,65.7147 90.5,61.5 Z"/></g>
<g><path style="opacity:0.241" fill="#d8edf2" d="M 98.5,61.5 C 100.453,67.0738 101.12,73.0738 100.5,79.5C 98.5467,73.9262 97.88,67.9262 98.5,61.5 Z"/></g>
<g><path style="opacity:0.21" fill="#d8edf2" d="M 42.5,63.5 C 43.1667,63.5 43.8333,63.5 44.5,63.5C 44.38,64.5862 43.7133,65.2528 42.5,65.5C 39.9172,64.7582 39.9172,64.0915 42.5,63.5 Z"/></g>
<g><path style="opacity:0.191" fill="#d8edf2" d="M 32.5,65.5 C 32.8432,67.4832 32.1765,68.8166 30.5,69.5C 30.1568,67.5168 30.8235,66.1834 32.5,65.5 Z"/></g>
<g><path style="opacity:0.215" fill="#d8edf2" d="M 52.5,65.5 C 52.5,66.8333 51.8333,67.5 50.5,67.5C 50.5,66.1667 51.1667,65.5 52.5,65.5 Z"/></g>
<g><path style="opacity:0.853" fill="#a7d4e2" d="M 134.5,65.5 C 134.369,66.3764 134.702,67.0431 135.5,67.5C 136.463,67.0302 136.463,66.3635 135.5,65.5C 136.5,65.5 137.5,65.5 138.5,65.5C 138.5,66.8333 138.5,68.1667 138.5,69.5C 136.5,69.5 134.5,69.5 132.5,69.5C 132.157,67.5168 132.824,66.1834 134.5,65.5 Z M 134.5,65.5 C 134.833,65.5 135.167,65.5 135.5,65.5C 136.463,66.3635 136.463,67.0302 135.5,67.5C 134.702,67.0431 134.369,66.3764 134.5,65.5 Z"/></g>
<g><path style="opacity:0.21" fill="#d8edf2" d="M 80.5,67.5 C 77.6627,69.4023 74.3293,70.069 70.5,69.5C 73.3373,67.5977 76.6707,66.931 80.5,67.5 Z"/></g>
<g><path style="opacity:0.926" fill="#9acede" d="M 40.5,77.5 C 40.7709,75.6203 40.1042,74.287 38.5,73.5C 39.1834,71.8235 40.5168,71.1568 42.5,71.5C 42.9746,74.0821 42.3079,76.0821 40.5,77.5 Z"/></g>
<g><path style="opacity:0.236" fill="#d8edf2" d="M 50.5,71.5 C 50.5,72.8333 49.8333,73.5 48.5,73.5C 48.5,72.1667 49.1667,71.5 50.5,71.5 Z"/></g>
<g><path style="opacity:0.801" fill="#9ccfde" d="M 108.5,69.5 C 109.167,72.1667 109.833,72.1667 110.5,69.5C 112.176,70.1834 112.843,71.5168 112.5,73.5C 110.5,73.5 108.5,73.5 106.5,73.5C 106.157,71.5168 106.824,70.1834 108.5,69.5 Z M 108.5,69.5 C 109.167,69.5 109.833,69.5 110.5,69.5C 109.833,72.1667 109.167,72.1667 108.5,69.5 Z"/></g>
<g><path style="opacity:0.201" fill="#cfe8ef" d="M 38.5,73.5 C 38.5,75.5 38.5,77.5 38.5,79.5C 37.3065,79.0296 36.6399,78.0296 36.5,76.5C 36.6399,74.9704 37.3065,73.9704 38.5,73.5 Z"/></g>
<g><path style="opacity:0.583" fill="#b2dce5" d="M 88.5,75.5 C 88.5,76.1667 88.5,76.8333 88.5,77.5C 85.1667,77.5 81.8333,77.5 78.5,77.5C 81.3373,75.5977 84.6707,74.931 88.5,75.5 Z"/></g>
<g><path style="opacity:0.698" fill="#b2dce5" d="M 126.5,75.5 C 132.5,75.5 138.5,75.5 144.5,75.5C 141.913,76.8164 138.913,77.483 135.5,77.5C 132.087,77.483 129.087,76.8164 126.5,75.5 Z"/></g>
<g><path style="opacity:0.946" fill="#a9d5e3" d="M 30.5,72.5 C 31.0969,77.294 30.4302,81.6273 28.5,85.5C 27.6357,81.5306 27.8023,77.5306 29,73.5C 29.3826,72.944 29.8826,72.6107 30.5,72.5 Z"/></g>
<g><path style="opacity:0.206" fill="#d8edf2" d="M 88.5,79.5 C 90.1765,80.1834 90.8432,81.5168 90.5,83.5C 89.8333,83.5 89.1667,83.5 88.5,83.5C 88.5,82.1667 88.5,80.8333 88.5,79.5 Z"/></g>
<g><path style="opacity:0.214" fill="#d0e9f0" d="M 100.5,79.5 C 101.833,79.5 103.167,79.5 104.5,79.5C 104.5,84.8333 104.5,90.1667 104.5,95.5C 103.167,95.5 101.833,95.5 100.5,95.5C 100.5,94.8333 100.5,94.1667 100.5,93.5C 101.794,91.9522 102.461,89.9522 102.5,87.5C 102.253,84.6509 101.587,81.9843 100.5,79.5 Z"/></g>
<g><path style="opacity:0.235" fill="#d3eaf1" d="M 126.5,83.5 C 126.5,84.1667 126.5,84.8333 126.5,85.5C 126.5,88.8333 126.5,92.1667 126.5,95.5C 124.517,95.8432 123.183,95.1765 122.5,93.5C 123.833,90.1667 125.167,86.8333 126.5,83.5 Z"/></g>
<g><path style="opacity:0.912" fill="#8fc9da" d="M 126.5,83.5 C 131.833,83.5 137.167,83.5 142.5,83.5C 142.5,84.1667 142.5,84.8333 142.5,85.5C 137.167,85.5 131.833,85.5 126.5,85.5C 126.5,84.8333 126.5,84.1667 126.5,83.5 Z"/></g>
<g><path style="opacity:0.215" fill="#d8edf2" d="M 142.5,83.5 C 143.693,83.9704 144.36,84.9704 144.5,86.5C 144.36,88.0296 143.693,89.0296 142.5,89.5C 142.5,88.1667 142.5,86.8333 142.5,85.5C 142.5,84.8333 142.5,84.1667 142.5,83.5 Z"/></g>
<g><path style="opacity:0.934" fill="#90c9db" d="M 88.5,83.5 C 89.1667,83.5 89.8333,83.5 90.5,83.5C 93.8333,83.5 97.1667,83.5 100.5,83.5C 100.5,86.8333 100.5,90.1667 100.5,93.5C 100.5,94.1667 100.5,94.8333 100.5,95.5C 98.5977,92.6627 97.931,89.3293 98.5,85.5C 94.6707,86.069 91.3373,85.4023 88.5,83.5 Z"/></g>
<g><path style="opacity:0.204" fill="#cee8ef" d="M 36.5,88.5 C 37.5676,87.5655 38.901,87.2322 40.5,87.5C 40.5,90.1667 40.5,92.8333 40.5,95.5C 38.5168,95.8432 37.1834,95.1765 36.5,93.5C 37.6491,93.2089 38.3158,92.3756 38.5,91C 38.3158,89.6244 37.6491,88.7911 36.5,88.5 Z"/></g>
<g><path style="opacity:0.639" fill="#bfe1ea" d="M 48.5,83.5 C 48.5,87.5 48.5,91.5 48.5,95.5C 47.2057,93.9522 46.5391,91.9522 46.5,89.5C 46.5391,87.0478 47.2057,85.0478 48.5,83.5 Z"/></g>
<g><path style="opacity:0.95" fill="#9dcfdf" d="M 79.5,87.5 C 83.724,88.7463 88.0573,89.7463 92.5,90.5C 94.3122,93.8989 94.9789,97.5656 94.5,101.5C 93.8333,101.5 93.1667,101.5 92.5,101.5C 92.5246,98.3815 92.1913,95.2148 91.5,92C 87.8484,91.5014 84.1817,91.3347 80.5,91.5C 80.5674,90.0413 80.2341,88.7079 79.5,87.5 Z"/></g>
<g><path style="opacity:0.476" fill="#c6e4ec" d="M 112.5,87.5 C 112.5,88.8333 113.167,89.5 114.5,89.5C 114.167,88.5 113.5,87.8333 112.5,87.5 Z"/></g>
<g><path style="opacity:0.464" fill="#b2dce5" d="M 132.5,91.5 C 133.748,92.3339 134.415,93.6672 134.5,95.5C 134.167,96.8333 133.833,98.1667 133.5,99.5C 132.52,96.9135 132.187,94.2469 132.5,91.5 Z"/></g>
<g><path style="opacity:0.654" fill="#bde0e9" d="M 28.5,93.5 C 30.3878,95.9878 31.0545,98.9878 30.5,102.5C 29.8826,102.389 29.3826,102.056 29,101.5C 28.5026,98.854 28.3359,96.1873 28.5,93.5 Z"/></g>
<g><path style="opacity:0.21" fill="#cee8ef" d="M 114.5,99.5 C 112.692,100.918 112.025,102.918 112.5,105.5C 110.631,103.365 109.964,100.698 110.5,97.5C 112.483,97.1568 113.817,97.8235 114.5,99.5 Z"/></g>
<g><path style="opacity:0.9" fill="#aed8e4" d="M 42.5,105.5 C 41.8333,105.5 41.1667,105.5 40.5,105.5C 40.5912,103.302 39.9245,102.969 38.5,104.5C 38.5,103.5 38.5,102.5 38.5,101.5C 39.8333,101.5 41.1667,101.5 42.5,101.5C 42.5,102.833 42.5,104.167 42.5,105.5 Z"/></g>
<g><path style="opacity:0.612" fill="#badfe8" d="M 48.5,100.5 C 50.2132,101.635 50.8799,103.302 50.5,105.5C 48.744,104.448 48.0773,102.781 48.5,100.5 Z"/></g>
<g><path style="opacity:0.829" fill="#bfe1ea" d="M 92.5,101.5 C 93.1667,101.5 93.8333,101.5 94.5,101.5C 97.6981,100.964 100.365,101.631 102.5,103.5C 100.08,103.292 97.7466,103.626 95.5,104.5C 93.7869,104.121 92.7869,103.121 92.5,101.5 Z"/></g>
<g><path style="opacity:0.579" fill="#b6dde6" d="M 132.5,103.5 C 129.061,103.253 125.728,103.586 122.5,104.5C 122.5,103.5 122.5,102.5 122.5,101.5C 126.555,101.176 130.555,101.509 134.5,102.5C 134.043,103.298 133.376,103.631 132.5,103.5 Z"/></g>
<g><path style="opacity:0.227" fill="#d8edf2" d="M 142.5,101.5 C 142.5,102.833 141.833,103.5 140.5,103.5C 140.5,102.167 141.167,101.5 142.5,101.5 Z"/></g>
<g><path style="opacity:0.221" fill="#d8edf2" d="M 102.5,103.5 C 104.402,106.337 105.069,109.671 104.5,113.5C 102.598,110.663 101.931,107.329 102.5,103.5 Z"/></g>
<g><path style="opacity:0.506" fill="#c0e1ea" d="M 30.5,105.5 C 32.0481,105.821 32.7148,106.821 32.5,108.5C 31.0937,108.027 30.427,107.027 30.5,105.5 Z"/></g>
<g><path style="opacity:0.238" fill="#d8edf2" d="M 132.5,105.5 C 132.5,106.833 131.833,107.5 130.5,107.5C 130.5,106.167 131.167,105.5 132.5,105.5 Z"/></g>
<g><path style="opacity:0.874" fill="#a8d5e2" d="M 38.5,105.5 C 39.1667,105.5 39.8333,105.5 40.5,105.5C 40.281,106.675 40.6143,107.675 41.5,108.5C 42.1067,108.376 42.44,108.043 42.5,107.5C 43.3764,107.369 44.0431,107.702 44.5,108.5C 42.604,109.466 40.604,109.799 38.5,109.5C 38.5,108.167 38.5,106.833 38.5,105.5 Z"/></g>
<g><path style="opacity:0.164" fill="#d8edf2" d="M 140.5,107.5 C 140.843,109.483 140.176,110.817 138.5,111.5C 138.157,109.517 138.824,108.183 140.5,107.5 Z"/></g>
<g><path style="opacity:0.571" fill="#bfe1ea" d="M 50.5,107.5 C 52.1765,108.183 52.8432,109.517 52.5,111.5C 50.8235,110.817 50.1568,109.483 50.5,107.5 Z"/></g>
<g><path style="opacity:0.24" fill="#d8edf2" d="M 130.5,111.5 C 130.5,112.833 129.833,113.5 128.5,113.5C 128.5,112.167 129.167,111.5 130.5,111.5 Z"/></g>
<g><path style="opacity:0.191" fill="#d8edf2" d="M 138.5,113.5 C 138.5,114.833 137.833,115.5 136.5,115.5C 136.5,114.167 137.167,113.5 138.5,113.5 Z"/></g>
<g><path style="opacity:0.539" fill="#b2dce5" d="M 54.5,115.5 C 56.1765,116.183 56.8432,117.517 56.5,119.5C 54.8235,118.817 54.1568,117.483 54.5,115.5 Z"/></g>
<g><path style="opacity:0.627" fill="#c0e1ea" d="M 128.5,114.5 C 128.715,116.179 128.048,117.179 126.5,117.5C 126.427,115.973 127.094,114.973 128.5,114.5 Z"/></g>
<g><path style="opacity:0.512" fill="#badfe8" d="M 48.5,119.5 C 47.8333,119.833 47.1667,120.167 46.5,120.5C 45.9094,119.849 45.2427,119.182 44.5,118.5C 45.1667,118.167 45.8333,117.833 46.5,117.5C 47.7133,117.747 48.38,118.414 48.5,119.5 Z"/></g>
<g><path style="opacity:0.263" fill="#d8edf2" d="M 126.5,117.5 C 126.5,118.833 125.833,119.5 124.5,119.5C 124.5,118.167 125.167,117.5 126.5,117.5 Z"/></g>
<g><path style="opacity:0.153" fill="#d8edf2" d="M 136.5,117.5 C 136.5,118.833 135.833,119.5 134.5,119.5C 134.5,118.167 135.167,117.5 136.5,117.5 Z"/></g>
<g><path style="opacity:0.173" fill="#d8edf2" d="M 48.5,121.5 C 50.337,121.639 50.6704,122.306 49.5,123.5C 48.7025,123.043 48.3691,122.376 48.5,121.5 Z"/></g>
<g><path style="opacity:0.593" fill="#c0e1ea" d="M 124.5,120.5 C 124.715,122.179 124.048,123.179 122.5,123.5C 122.427,121.973 123.094,120.973 124.5,120.5 Z"/></g>
<g><path style="opacity:0.138" fill="#d8edf2" d="M 134.5,121.5 C 134.5,122.833 133.833,123.5 132.5,123.5C 132.5,122.167 133.167,121.5 134.5,121.5 Z"/></g>
<g><path style="opacity:0.239" fill="#d8edf2" d="M 122.5,123.5 C 122.5,124.833 121.833,125.5 120.5,125.5C 120.5,124.167 121.167,123.5 122.5,123.5 Z"/></g>
<g><path style="opacity:0.827" fill="#b3dae6" d="M 60.5,123.5 C 62.2014,124.211 63.2014,125.545 63.5,127.5C 62.5,127.5 61.5,127.5 60.5,127.5C 60.5,126.167 60.5,124.833 60.5,123.5 Z"/></g>
<g><path style="opacity:0.248" fill="#d8edf2" d="M 120.5,125.5 C 120.5,126.833 119.833,127.5 118.5,127.5C 118.5,126.167 119.167,125.5 120.5,125.5 Z"/></g>
<g><path style="opacity:0.212" fill="#d8edf2" d="M 64.5,127.5 C 65.8333,127.5 66.5,128.167 66.5,129.5C 65.1667,129.5 64.5,128.833 64.5,127.5 Z"/></g>
<g><path style="opacity:0.128" fill="#d8edf2" d="M 128.5,129.5 C 128.5,130.833 127.833,131.5 126.5,131.5C 126.5,130.167 127.167,129.5 128.5,129.5 Z"/></g>
<g><path style="opacity:0.161" fill="#d8edf2" d="M 126.5,131.5 C 126.5,132.833 125.833,133.5 124.5,133.5C 124.5,132.167 125.167,131.5 126.5,131.5 Z"/></g>
<g><path style="opacity:0.214" fill="#d8edf2" d="M 72.5,133.5 C 73.8333,133.5 74.5,134.167 74.5,135.5C 73.1667,135.5 72.5,134.833 72.5,133.5 Z"/></g>
<g><path style="opacity:0.226" fill="#d8edf2" d="M 50.5,135.5 C 51.8333,135.5 52.5,136.167 52.5,137.5C 51.1667,137.5 50.5,136.833 50.5,135.5 Z"/></g>
<g><path style="opacity:0.217" fill="#d8edf2" d="M 78.5,135.5 C 79.8333,135.5 80.5,136.167 80.5,137.5C 79.1667,137.5 78.5,136.833 78.5,135.5 Z"/></g>
<g><path style="opacity:0.595" fill="#badfe8" d="M 106.5,135.5 C 105.448,137.256 103.781,137.923 101.5,137.5C 102.635,135.787 104.302,135.12 106.5,135.5 Z"/></g>
<g><path style="opacity:0.238" fill="#d8edf2" d="M 52.5,137.5 C 53.8333,137.5 54.5,138.167 54.5,139.5C 53.1667,139.5 52.5,138.833 52.5,137.5 Z"/></g>
<g><path style="opacity:0.705" fill="#bfe1ea" d="M 86.5,137.5 C 90.5,137.5 94.5,137.5 98.5,137.5C 96.9522,138.794 94.9522,139.461 92.5,139.5C 90.0478,139.461 88.0478,138.794 86.5,137.5 Z"/></g>
<g><path style="opacity:0.234" fill="#dfeff4" d="M 59.5,141.5 C 61.1788,141.285 62.1788,141.952 62.5,143.5C 60.9731,143.573 59.9731,142.906 59.5,141.5 Z"/></g>
<g><path style="opacity:0.232" fill="#d8edf2" d="M 64.5,143.5 C 65.8333,143.5 66.5,144.167 66.5,145.5C 65.1667,145.5 64.5,144.833 64.5,143.5 Z"/></g>
<g><path style="opacity:0.495" fill="#b2dce5" d="M 106.5,143.5 C 105.817,145.176 104.483,145.843 102.5,145.5C 103.183,143.824 104.517,143.157 106.5,143.5 Z"/></g>
<g><path style="opacity:0.653" fill="#bfe1ea" d="M 70.5,145.5 C 79.1667,145.5 87.8333,145.5 96.5,145.5C 93.2319,146.822 89.5652,147.489 85.5,147.5C 80.2328,147.713 75.2328,147.046 70.5,145.5 Z"/></g>
</svg>
