<svg width="26" height="26" viewBox="0 0 26 26" fill="none" xmlns="http://www.w3.org/2000/svg">
<path opacity="0.2" d="M25.9295 13.0002C25.9295 20.1422 20.1399 25.9318 12.9981 25.9318C5.85621 25.9318 0.0666122 20.1422 0.0666122 13.0002C0.0666122 5.85841 5.85621 0.0688171 12.9981 0.0688171C20.1399 0.0688171 25.9295 5.85841 25.9295 13.0002Z" fill="#00A478"/>
<path d="M11.6721 12.7738V10.5115H8.60368V8.5285H17.1779V10.5394H14.1096V12.7738H11.6721Z" fill="#00A478"/>
<path fill-rule="evenodd" clip-rule="evenodd" d="M7.28456 13.0252C7.28456 12.2711 9.75074 11.6566 12.8191 11.6566C15.8875 11.6566 18.3537 12.2711 18.3537 13.0252C18.3537 13.7793 15.8875 14.3937 12.8191 14.3937C9.75074 14.3937 7.28456 13.7793 7.28456 13.0252ZM17.8949 13.0252C17.6941 12.7459 16.0309 11.8801 12.8191 11.8801C9.60735 11.8801 7.94412 12.7179 7.74338 13.0252C7.94412 13.3045 9.60735 13.7234 12.8191 13.7234C16.0596 13.7234 17.6941 13.3045 17.8949 13.0252Z" fill="#00A478"/>
<path d="M14.1096 13.4721V11.908C13.7081 11.8801 13.2779 11.8521 12.8478 11.8521C12.4463 11.8521 12.0735 11.8521 11.7007 11.8801V13.4441C12.0449 13.4441 12.4463 13.4721 12.8478 13.4721C13.2779 13.5 13.7081 13.5 14.1096 13.4721Z" fill="#00A478"/>
<path d="M12.8191 14.3938C12.4176 14.3938 12.0449 14.3938 11.6721 14.3658V18.5273H14.0809V14.3379C13.6794 14.3658 13.2493 14.3938 12.8191 14.3938Z" fill="#00A478"/>
</svg>
